<?xml version="1.0" standalone="no"?>
<!DOCTYPE svg PUBLIC "-//W3C//DTD SVG 20010904//EN"
 "http://www.w3.org/TR/2001/REC-SVG-20010904/DTD/svg10.dtd">
<svg version="1.0" xmlns="http://www.w3.org/2000/svg"
 width="700.000000pt" height="700.000000pt" viewBox="0 0 700.000000 700.000000"
 preserveAspectRatio="xMidYMid meet">
<metadata>
Created by potrace 1.14, written by Peter Selinger 2001-2017
</metadata>
<g transform="translate(0.000000,700.000000) scale(0.100000,-0.100000)"
fill="#000000" stroke="none">
<path d="M1112 6469 c-29 -15 -51 -36 -70 -68 l-27 -46 -1 -1460 c0 -1568 -2
-1497 49 -1553 12 -13 35 -30 50 -38 26 -14 139 -35 375 -70 20 -3 62 -9 92
-14 107 -18 137 -23 220 -35 62 -9 95 -14 130 -20 94 -16 116 -19 190 -30 25
-4 56 -8 70 -10 14 -2 66 -11 115 -19 50 -9 106 -18 125 -20 54 -7 109 -16
175 -28 33 -5 69 -11 80 -13 35 -4 140 -19 145 -20 3 0 58 -9 124 -20 l118
-19 -7 -125 c-3 -69 -8 -127 -9 -130 -2 -4 -6 -28 -10 -56 -22 -183 -106 -400
-217 -562 -35 -50 -177 -203 -189 -203 -3 0 -12 29 -19 65 -42 229 -180 529
-320 695 -139 166 -327 285 -505 322 -244 50 -487 -31 -680 -226 -116 -117
-199 -259 -250 -426 -36 -117 -45 -188 -42 -310 11 -404 288 -654 737 -664
244 -6 518 49 784 157 55 22 109 46 120 54 26 17 34 17 34 -4 -1 -10 0 -81 0
-158 0 -77 -1 -153 -3 -170 -2 -16 -6 -57 -10 -90 -17 -153 -75 -370 -126
-477 -43 -89 -48 -128 -19 -161 31 -34 81 -43 116 -20 65 43 185 399 207 614
21 203 24 313 13 489 l-6 105 47 34 c135 98 300 307 380 481 90 195 147 448
151 677 1 58 2 61 24 58 12 -2 38 -6 57 -9 19 -3 44 -7 55 -10 11 -2 43 -7 70
-10 28 -4 102 -15 165 -26 63 -10 135 -22 160 -25 25 -3 70 -10 100 -15 30 -5
71 -12 90 -15 19 -3 46 -7 60 -10 14 -2 45 -7 70 -10 25 -3 97 -15 160 -25 63
-10 133 -21 155 -25 22 -3 51 -8 65 -10 108 -18 160 -25 193 -25 67 0 224 -79
303 -152 83 -77 124 -167 139 -308 26 -242 126 -527 252 -720 126 -192 321
-356 487 -411 109 -35 229 -5 317 81 75 74 103 144 97 250 -7 113 -44 174
-161 267 -165 131 -266 250 -320 379 -41 97 -52 149 -62 279 -7 99 -14 140
-37 220 -74 257 -280 472 -584 611 -76 35 -274 104 -297 104 -7 0 -18 4 -25 9
-11 6 -87 355 -108 491 -3 19 -9 51 -14 70 -5 19 -11 46 -13 60 -3 14 -21 106
-40 205 -20 99 -38 191 -41 205 -2 14 -16 81 -29 150 -29 143 -67 333 -73 370
-3 14 -16 79 -29 145 -13 66 -26 134 -29 150 -3 17 -33 167 -67 335 -33 168
-63 316 -65 330 -3 14 -18 92 -35 174 -16 82 -32 161 -34 175 -3 14 -7 40 -11
56 -24 129 -47 171 -114 205 -39 20 -61 20 -1482 20 l-1443 0 -43 -21z m653
-3659 c14 -5 25 -8 25 -5 0 2 30 -9 68 -24 278 -115 471 -385 577 -808 50
-199 55 -183 -70 -243 -95 -46 -301 -120 -372 -134 -15 -3 -48 -10 -73 -15
-291 -61 -541 -43 -696 50 -139 84 -211 216 -220 401 -10 226 93 470 268 634
96 89 186 132 333 157 32 6 132 -2 160 -13z"/>
<path d="M5065 5472 c-33 -7 -75 -53 -75 -83 0 -47 -10 -59 -66 -75 -60 -17
-94 -51 -94 -95 0 -61 35 -96 105 -105 36 -4 55 -27 55 -65 0 -61 82 -111 136
-83 36 19 51 41 59 86 8 42 24 60 62 64 69 7 113 68 93 129 -13 39 -42 61 -91
69 -33 5 -74 40 -64 56 3 4 -2 23 -9 42 -18 42 -67 69 -111 60z"/>
<path d="M6015 3552 c-14 -13 -27 -41 -31 -61 -8 -46 -30 -71 -62 -71 -67 0
-118 -76 -93 -139 13 -30 62 -61 98 -61 27 0 49 -28 57 -72 7 -40 54 -88 85
-88 59 0 111 48 111 102 0 30 28 58 58 58 60 0 108 57 99 116 -7 42 -40 72
-89 80 -45 8 -63 27 -72 76 -14 79 -108 114 -161 60z"/>
<path d="M3783 2395 c-35 -15 -49 -36 -58 -86 -9 -50 -29 -66 -87 -68 -19 -1
-68 -46 -69 -64 0 -7 -2 -19 -4 -28 -8 -44 51 -103 104 -102 27 1 57 -34 59
-69 3 -47 50 -88 101 -88 54 0 98 51 92 106 -2 20 40 54 68 54 38 0 79 34 89
73 18 65 -34 120 -118 126 -15 1 -23 14 -35 54 -15 54 -45 96 -68 98 -7 0 -19
2 -28 4 -8 1 -29 -3 -46 -10z"/>
</g>
</svg>
